<?xml version="1.0" encoding="UTF-8" standalone="no"?>
<!DOCTYPE svg PUBLIC "-//W3C//DTD SVG 1.1//EN" "http://www.w3.org/Graphics/SVG/1.1/DTD/svg11.dtd">
<svg width="100%" height="100%" viewBox="0 0 5130 3924" version="1.1" xmlns="http://www.w3.org/2000/svg"
     xml:space="preserve"
     style="fill-rule:evenodd;clip-rule:evenodd;stroke-linejoin:round;stroke-miterlimit:2;">
    <g transform="matrix(1,0,0,1,-5179.79,-19486.5)">
        <g id="farmer" transform="matrix(0.566081,0,0,0.505995,5179.79,10329.9)">
            <rect x="0" y="18096.2" width="9061.47" height="7754.26" style="fill:none;"/>
            <clipPath id="_clip1">
                <rect x="0" y="18096.2" width="9061.47" height="7754.26"/>
            </clipPath>
            <g clip-path="url(#_clip1)">
                <g transform="matrix(2.69518,0,0,3.52356,-7251.57,-59488.3)">
                    <g>
                        <g transform="matrix(11.1498,0.728286,-8.40997,3.68514,-293951,-91641.5)">
                            <rect x="43654.6" y="22526.4" width="243.108" height="77.369" style="fill:rgb(185,185,185);"/>
                        </g>
                        <g transform="matrix(1.34775,0.0880332,0,1.16723,-1452.83,-3385.7)">
                            <rect x="3074.37" y="22758.6" width="2011.17" height="507.95" style="fill:rgb(216,216,216);"/>
                        </g>
                        <g transform="matrix(1.36577,-0.598462,-2.2415e-18,1.51401,-2785.2,-7636.08)">
                            <rect x="5994.01" y="23018.2" width="476.909" height="391.606" style="fill:rgb(162,162,162);"/>
                        </g>
                    </g>
                    <g transform="matrix(1,0,0,1,-2.27374e-13,91.2146)">
                        <g transform="matrix(0.391698,0.0255851,0,0.28983,2601.77,16704.8)">
                            <rect x="3892.1" y="21892.8" width="618.821" height="646.482" style="fill:rgb(255,223,0);"/>
                        </g>
                        <g transform="matrix(0.530551,-0.232481,1.61582e-17,0.283418,1658.21,18151.4)">
                            <rect x="5108.8" y="21881.8" width="305.878" height="659.547" style="fill:rgb(237,207,0);"/>
                        </g>
                    </g>
                    <g>
                        <g>
                            <g transform="matrix(1.56149,0.101994,-2.62428,1.14992,-5275.82,-7165.58)">
                                <rect x="43657" y="22526.4" width="119.099" height="249.577" style="fill:rgb(92,119,212);"/>
                            </g>
                            <g transform="matrix(1.52996,0.0999345,0,1.33846,-4098.78,-7479.72)">
                                <rect x="4720.87" y="22776.8" width="121.554" height="443.618" style="fill:rgb(92,119,212);"/>
                            </g>
                        </g>
                        <g>
                            <g transform="matrix(1.52996,0.0999345,0,1.3365,-2421.27,-7325.56)">
                                <rect x="4720.87" y="22776.8" width="121.554" height="443.618" style="fill:rgb(92,119,212);"/>
                            </g>
                            <g transform="matrix(1.55763,0.101742,-2.62428,1.14992,-3429.61,-7044.99)">
                                <rect x="43657" y="22526.4" width="119.099" height="249.577" style="fill:rgb(92,119,212);"/>
                            </g>
                        </g>
                    </g>
                    <g transform="matrix(1,0,0,1,-2.27374e-13,60.1388)">
                        <g transform="matrix(1.75208,0.114443,0,1.29642,-3355.61,-6415.77)">
                            <rect x="3892.1" y="21892.8" width="618.821" height="646.482" style="fill:rgb(255,223,0);"/>
                        </g>
                        <g transform="matrix(1.75208,0.114443,0,0.211641,-3355.61,17196.3)">
                            <rect x="3892.1" y="21892.8" width="618.821" height="646.482" style="fill:rgb(199,105,60);"/>
                        </g>
                        <g transform="matrix(2.37317,-1.03989,7.2276e-17,1.26774,-7576.19,54.8725)">
                            <rect x="5108.8" y="21881.8" width="305.878" height="659.547" style="fill:rgb(237,207,0);"/>
                        </g>
                        <g transform="matrix(1.53441,0,0,1.31306,-2421.27,-6878.58)">
                            <path d="M5014.99,22014.6L4541.91,22256.9L4541.91,22361.1L4721.73,22269L4721.73,22748L5014.99,22597.8L5014.99,22014.6Z" style="fill:rgb(174,88,48);"/>
                        </g>
                        <g transform="matrix(1.52996,0.0999345,-2.61541,1.14604,-2421.27,-6878.58)">
                            <rect x="41192.6" y="21570.5" width="708.661" height="276.145" style="fill:rgb(199,105,60);"/>
                        </g>
                    </g>
                    <g transform="matrix(1,0,0,1,-2.27374e-13,-60.5796)">
                        <g transform="matrix(2.12411,0.138744,0,1.82828,-5284.83,-18897.1)">
                            <ellipse cx="4792.25" cy="23137.2" rx="30.869" ry="32.248" style="fill:rgb(202,175,2);"/>
                        </g>
                        <g transform="matrix(2.12411,0.138744,0,1.82828,-5289.43,-18895.3)">
                            <ellipse cx="4792.25" cy="23137.2" rx="30.869" ry="32.248" style="fill:rgb(237,207,0);"/>
                        </g>
                        <g>
                            <g transform="matrix(1,0,0,1,3.54947,0.227944)">
                                <g transform="matrix(1.52996,0.0999345,0,1.31687,-2424.72,-6882.72)">
                                    <ellipse cx="4768.08" cy="23131" rx="4.955" ry="5.177" style="fill:rgb(199,106,60);"/>
                                </g>
                                <g transform="matrix(1.52996,0.0999345,0,1.31687,-2423.59,-6882.63)">
                                    <ellipse cx="4768.08" cy="23131" rx="4.955" ry="5.177" style="fill:rgb(153,68,27);"/>
                                </g>
                            </g>
                            <g transform="matrix(1,0,0,1,35.6559,2.34069)">
                                <g transform="matrix(1.52996,0.0999345,0,1.31687,-2424.72,-6882.72)">
                                    <ellipse cx="4768.08" cy="23131" rx="4.955" ry="5.177" style="fill:rgb(199,106,60);"/>
                                </g>
                                <g transform="matrix(1.52996,0.0999345,0,1.31687,-2423.59,-6882.63)">
                                    <ellipse cx="4768.08" cy="23131" rx="4.955" ry="5.177" style="fill:rgb(153,68,27);"/>
                                </g>
                            </g>
                            <g transform="matrix(1,0,0,1,36.2742,32.7625)">
                                <g transform="matrix(1.52996,0.0999345,0,1.31687,-2424.72,-6882.72)">
                                    <ellipse cx="4768.08" cy="23131" rx="4.955" ry="5.177" style="fill:rgb(199,106,60);"/>
                                </g>
                                <g transform="matrix(1.52996,0.0999345,0,1.31687,-2423.59,-6882.63)">
                                    <ellipse cx="4768.08" cy="23131" rx="4.955" ry="5.177" style="fill:rgb(153,68,27);"/>
                                </g>
                            </g>
                            <g transform="matrix(1,0,0,1,1.84266,30.5135)">
                                <g transform="matrix(1.52996,0.0999345,0,1.31687,-2424.72,-6882.72)">
                                    <ellipse cx="4768.08" cy="23131" rx="4.955" ry="5.177" style="fill:rgb(199,106,60);"/>
                                </g>
                                <g transform="matrix(1.52996,0.0999345,0,1.31687,-2423.59,-6882.63)">
                                    <ellipse cx="4768.08" cy="23131" rx="4.955" ry="5.177" style="fill:rgb(153,68,27);"/>
                                </g>
                            </g>
                        </g>
                    </g>
                    <g transform="matrix(1,0,0,1,-1680.15,-170.324)">
                        <g transform="matrix(2.12411,0.138744,0,1.82828,-5284.83,-18897.1)">
                            <ellipse cx="4792.25" cy="23137.2" rx="30.869" ry="32.248" style="fill:rgb(202,175,2);"/>
                        </g>
                        <g transform="matrix(2.12411,0.138744,0,1.82828,-5289.43,-18895.3)">
                            <ellipse cx="4792.25" cy="23137.2" rx="30.869" ry="32.248" style="fill:rgb(237,207,0);"/>
                        </g>
                        <g>
                            <g transform="matrix(1,0,0,1,3.54947,0.227944)">
                                <g transform="matrix(1.52996,0.0999345,0,1.31687,-2424.72,-6882.72)">
                                    <ellipse cx="4768.08" cy="23131" rx="4.955" ry="5.177" style="fill:rgb(199,106,60);"/>
                                </g>
                                <g transform="matrix(1.52996,0.0999345,0,1.31687,-2423.59,-6882.63)">
                                    <ellipse cx="4768.08" cy="23131" rx="4.955" ry="5.177" style="fill:rgb(153,68,27);"/>
                                </g>
                            </g>
                            <g transform="matrix(1,0,0,1,35.6559,2.34069)">
                                <g transform="matrix(1.52996,0.0999345,0,1.31687,-2424.72,-6882.72)">
                                    <ellipse cx="4768.08" cy="23131" rx="4.955" ry="5.177" style="fill:rgb(199,106,60);"/>
                                </g>
                                <g transform="matrix(1.52996,0.0999345,0,1.31687,-2423.59,-6882.63)">
                                    <ellipse cx="4768.08" cy="23131" rx="4.955" ry="5.177" style="fill:rgb(153,68,27);"/>
                                </g>
                            </g>
                            <g transform="matrix(1,0,0,1,36.2742,32.7625)">
                                <g transform="matrix(1.52996,0.0999345,0,1.31687,-2424.72,-6882.72)">
                                    <ellipse cx="4768.08" cy="23131" rx="4.955" ry="5.177" style="fill:rgb(199,106,60);"/>
                                </g>
                                <g transform="matrix(1.52996,0.0999345,0,1.31687,-2423.59,-6882.63)">
                                    <ellipse cx="4768.08" cy="23131" rx="4.955" ry="5.177" style="fill:rgb(153,68,27);"/>
                                </g>
                            </g>
                            <g transform="matrix(1,0,0,1,1.84266,30.5135)">
                                <g transform="matrix(1.52996,0.0999345,0,1.31687,-2424.72,-6882.72)">
                                    <ellipse cx="4768.08" cy="23131" rx="4.955" ry="5.177" style="fill:rgb(199,106,60);"/>
                                </g>
                                <g transform="matrix(1.52996,0.0999345,0,1.31687,-2423.59,-6882.63)">
                                    <ellipse cx="4768.08" cy="23131" rx="4.955" ry="5.177" style="fill:rgb(153,68,27);"/>
                                </g>
                            </g>
                        </g>
                    </g>
                </g>
            </g>
        </g>
    </g>
</svg>
