<?xml version="1.0" encoding="UTF-8" standalone="no"?>
<!DOCTYPE svg PUBLIC "-//W3C//DTD SVG 1.1//EN" "http://www.w3.org/Graphics/SVG/1.1/DTD/svg11.dtd">
<svg width="100%" height="100%" viewBox="0 0 12075 1713" version="1.1" xmlns="http://www.w3.org/2000/svg"
     xml:space="preserve"
     style="fill-rule:evenodd;clip-rule:evenodd;stroke-linejoin:round;stroke-miterlimit:2;">
    <g transform="matrix(1,0,0,1,-1419,-9896.33)">
        <g id="gardener-light" transform="matrix(0.946574,0,0,0.483333,75.7891,6263.6)">
            <rect x="1419.02" y="7515.99" width="12755.9" height="3543.31" style="fill:none;"/>
            <clipPath id="_clip1">
                <rect x="1419.02" y="7515.99" width="12755.9" height="3543.31"/>
            </clipPath>
            <g clip-path="url(#_clip1)">
                <g transform="matrix(17.9994,0,0,1.7978,-41129.2,-8044.91)">
                    <path d="M2456.82,9470.91L2425.01,9470.91C2423.22,9470.91 2421.99,9495.2 2421.99,9516.8L2421.99,9794.86C2421.99,9821.86 2423.22,9840.76 2425.01,9840.76L2438.51,9840.76L2438.51,10043.2C2433.28,10151.2 2426.25,10218.7 2418.54,10218.7C2403.4,10218.7 2391.01,10045.9 2391.01,9640.98C2391.01,9276.53 2403.4,9063.26 2418.54,9063.26C2426.12,9063.26 2433.14,9125.35 2438.23,9225.24C2439.06,9244.13 2440.85,9246.83 2441.95,9227.94L2452.69,9020.06C2453.65,9003.86 2453.65,8966.07 2452.96,8947.17C2444.43,8782.49 2431.76,8669.11 2418.54,8669.11C2391.69,8669.11 2369.8,9079.45 2369.8,9640.98C2369.8,10256.5 2390.32,10612.9 2416.48,10612.9C2426.12,10612.9 2433.83,10564.3 2440.16,10450.9C2440.16,10507.6 2440.3,10494.1 2440.43,10548.1C2440.43,10575.1 2441.95,10594 2443.46,10594L2456.82,10594C2458.47,10594 2459.57,10569.7 2459.57,10545.4L2459.57,9516.8C2459.57,9495.2 2458.47,9470.91 2456.82,9470.91Z" style="fill:rgb(224,224,224);fill-rule:nonzero;"/>
                    <path d="M2522.91,10369.9L2526.62,10556.2L2526.62,10553.5C2526.9,10572.4 2528.14,10585.9 2529.24,10585.9L2545.9,10585.9C2547.97,10585.9 2549.07,10553.5 2548.38,10521.1L2511.89,8685.3C2510.93,8644.81 2507.49,8644.81 2506.52,8685.3L2470.04,10521.1C2469.35,10553.5 2470.31,10585.9 2472.65,10585.9L2489.04,10585.9C2490.41,10585.9 2491.65,10572.4 2491.93,10553.5L2491.93,10556.2L2495.37,10369.9L2522.91,10369.9ZM2500.88,10043.2L2505.83,9762.47C2507.21,9681.48 2508.31,9600.49 2509.28,9500.6C2510.1,9595.09 2511.2,9673.38 2512.58,9762.47L2517.4,10043.2L2500.88,10043.2Z" style="fill:rgb(224,224,224);fill-rule:nonzero;"/>
                    <path d="M2608.27,10585.9L2626.31,10585.9C2628.51,10585.9 2629.75,10548.1 2628.51,10513L2628.51,10515.7L2605.38,9786.76C2614.47,9724.67 2624.38,9584.29 2624.38,9265.73C2624.38,8696.1 2590.92,8696.1 2590.92,8696.1L2560.36,8696.1C2558.7,8696.1 2557.47,8720.4 2557.47,8744.7L2557.47,9049.76L2564.49,9271.13C2566.42,9330.52 2568.48,9384.52 2570.27,9443.91L2560.36,9443.91C2558.7,9443.91 2557.47,9468.2 2557.47,9492.5L2557.47,10540C2557.47,10561.6 2558.7,10585.9 2560.36,10585.9L2575.64,10585.9C2577.43,10585.9 2578.53,10561.6 2578.53,10540L2578.53,9838.06L2582.66,9838.06L2605.79,10561.6L2605.66,10558.9C2605.93,10572.4 2607.45,10585.9 2608.27,10585.9ZM2593.54,9441.21L2582.25,9090.25L2590.92,9090.25C2593.54,9090.25 2603.18,9090.25 2603.18,9265.73C2603.18,9398.01 2597.95,9435.81 2593.54,9441.21Z" style="fill:rgb(224,224,224);fill-rule:nonzero;"/>
                    <path d="M2659.77,8696.1L2644.48,8696.1C2642.83,8696.1 2641.59,8720.4 2641.59,8744.7L2641.59,10540C2641.59,10561.6 2642.83,10585.9 2644.48,10585.9L2659.77,10585.9C2683.72,10585.9 2716.35,10448.2 2716.35,9640.98C2716.35,8801.39 2683.31,8696.1 2659.77,8696.1ZM2662.8,10189L2662.8,9092.95C2681.11,9087.55 2695.01,9241.43 2695.01,9640.98C2695.01,10162 2673.95,10197.1 2662.8,10189Z" style="fill:rgb(224,224,224);fill-rule:nonzero;"/>
                    <path d="M2753.8,9082.15L2795.52,9082.15C2797.18,9082.15 2798.41,9057.86 2798.41,9033.56L2798.41,8744.7C2798.41,8720.4 2797.18,8696.1 2795.52,8696.1L2735.63,8696.1C2733.84,8696.1 2732.74,8720.4 2732.74,8744.7L2732.74,10540C2732.74,10561.6 2733.84,10585.9 2735.63,10585.9L2796.62,10585.9C2798.41,10585.9 2799.65,10561.6 2799.65,10540L2799.65,10240.3C2799.65,10216 2798.41,10191.7 2796.62,10191.7L2753.8,10191.7L2753.8,9829.96L2789.05,9829.96C2790.7,9829.96 2791.8,9805.66 2791.8,9784.07L2791.8,9492.5C2791.8,9468.2 2790.7,9443.91 2789.05,9443.91L2753.8,9443.91L2753.8,9082.15Z" style="fill:rgb(224,224,224);fill-rule:nonzero;"/>
                    <path d="M2895.89,10540L2895.89,8744.7C2895.89,8720.4 2894.79,8696.1 2893,8696.1L2877.86,8696.1C2876.07,8696.1 2874.97,8720.4 2874.97,8744.7L2874.97,9840.76C2861.06,9449.31 2848.39,9103.75 2834.62,8715C2834.07,8701.5 2832.84,8696.1 2832.28,8696.1L2816.73,8696.1C2815.07,8696.1 2813.83,8720.4 2813.83,8744.7L2813.83,10540C2813.83,10561.6 2815.07,10585.9 2816.73,10585.9L2832.15,10585.9C2833.8,10585.9 2835.04,10561.6 2835.04,10540L2835.04,9438.51L2875.24,10567C2875.79,10580.5 2877.03,10585.9 2877.58,10585.9L2893,10585.9C2894.79,10585.9 2895.89,10561.6 2895.89,10540Z" style="fill:rgb(224,224,224);fill-rule:nonzero;"/>
                    <path d="M2936.92,9082.15L2978.64,9082.15C2980.3,9082.15 2981.53,9057.86 2981.53,9033.56L2981.53,8744.7C2981.53,8720.4 2980.3,8696.1 2978.64,8696.1L2918.75,8696.1C2916.96,8696.1 2915.86,8720.4 2915.86,8744.7L2915.86,10540C2915.86,10561.6 2916.96,10585.9 2918.75,10585.9L2979.74,10585.9C2981.53,10585.9 2982.77,10561.6 2982.77,10540L2982.77,10240.3C2982.77,10216 2981.53,10191.7 2979.74,10191.7L2936.92,10191.7L2936.92,9829.96L2972.17,9829.96C2973.82,9829.96 2974.93,9805.66 2974.93,9784.07L2974.93,9492.5C2974.93,9468.2 2973.82,9443.91 2972.17,9443.91L2936.92,9443.91L2936.92,9082.15Z" style="fill:rgb(224,224,224);fill-rule:nonzero;"/>
                    <path d="M3047.76,10585.9L3065.8,10585.9C3068,10585.9 3069.24,10548.1 3068,10513L3068,10515.7L3044.87,9786.76C3053.96,9724.67 3063.87,9584.29 3063.87,9265.73C3063.87,8696.1 3030.41,8696.1 3030.41,8696.1L2999.85,8696.1C2998.19,8696.1 2996.95,8720.4 2996.95,8744.7L2996.95,9049.76L3003.98,9271.13C3005.9,9330.52 3007.97,9384.52 3009.76,9443.91L2999.85,9443.91C2998.19,9443.91 2996.95,9468.2 2996.95,9492.5L2996.95,10540C2996.95,10561.6 2998.19,10585.9 2999.85,10585.9L3015.13,10585.9C3016.92,10585.9 3018.02,10561.6 3018.02,10540L3018.02,9838.06L3022.15,9838.06L3045.28,10561.6L3045.14,10558.9C3045.42,10572.4 3046.93,10585.9 3047.76,10585.9ZM3033.03,9441.21L3021.74,9090.25L3030.41,9090.25C3033.03,9090.25 3042.67,9090.25 3042.67,9265.73C3042.67,9398.01 3037.43,9435.81 3033.03,9441.21Z" style="fill:rgb(224,224,224);fill-rule:nonzero;"/>
                </g>
            </g>
        </g>
    </g>
</svg>
