<?xml version="1.0" encoding="UTF-8" standalone="no"?>
<!DOCTYPE svg PUBLIC "-//W3C//DTD SVG 1.1//EN" "http://www.w3.org/Graphics/SVG/1.1/DTD/svg11.dtd">
<svg width="100%" height="100%" viewBox="0 0 512 512" version="1.1" xmlns="http://www.w3.org/2000/svg"
     xml:space="preserve"
     style="fill-rule:evenodd;clip-rule:evenodd;stroke-linejoin:round;stroke-miterlimit:2;">
    <g transform="matrix(-1,0,0,1,512,0)">
        <path d="M492.533,393.514C446.942,464.631 367.273,511.802 276.574,511.998C136.061,512.303 20.686,398.644 18.987,258.141C17.389,125.938 115.61,16.341 243.014,0.027C245.737,-0.322 247.511,2.793 245.856,4.983C215.137,45.644 196.925,96.269 196.925,151.16C196.925,285.223 305.601,393.898 439.663,393.898C456.667,393.898 473.255,392.154 489.27,388.823C491.959,388.264 494.015,391.202 492.533,393.514Z" style="fill:rgb(239,218,69);fill-rule:nonzero;"/>
    </g>
    <g transform="matrix(-1,0,0,1,512,0)">
        <path d="M489.276,388.819C491.96,388.261 494.016,391.192 492.537,393.501C446.851,464.773 366.946,512 276.009,512C134.044,512 18.972,396.917 18.972,254.963C18.972,198.155 37.396,145.657 68.607,103.103C61.521,126.348 57.646,150.991 57.491,176.522C56.624,319.554 171.5,435.157 314.535,435.151C366.366,435.149 414.611,419.809 454.971,393.411C466.655,392.692 478.106,391.143 489.276,388.819Z" style="fill:rgb(237,193,72);fill-rule:nonzero;"/>
    </g>
</svg>
