<?xml version="1.0" encoding="UTF-8" standalone="no"?>
<!DOCTYPE svg PUBLIC "-//W3C//DTD SVG 1.1//EN" "http://www.w3.org/Graphics/SVG/1.1/DTD/svg11.dtd">
<svg width="100%" height="100%" viewBox="0 0 2030 2986" version="1.1" xmlns="http://www.w3.org/2000/svg" xmlns:xlink="http://www.w3.org/1999/xlink" xml:space="preserve" xmlns:serif="http://www.serif.com/" style="fill-rule:evenodd;clip-rule:evenodd;stroke-linejoin:round;stroke-miterlimit:2;">
    <g transform="matrix(1,0,0,1,-12369.6,-19486.5)">
        <g id="seed" transform="matrix(0.312666,0,0,0.521216,10016.6,11562.5)">
            <rect x="7525.51" y="15202.9" width="6489.79" height="5728.58" style="fill:none;"/>
            <clipPath id="_clip1">
                <rect x="7525.51" y="15202.9" width="6489.79" height="5728.58"/>
            </clipPath>
            <g clip-path="url(#_clip1)">
                <g transform="matrix(18.6504,0,0,11.1886,7525.51,15202.9)">
                    <path d="M345.962,338.014C345.962,434.104 270.075,512 173.986,512C77.896,512 -0,434.104 -0,338.014C-0,241.925 77.896,-0 173.986,-0C270.075,-0 345.962,241.925 345.962,338.014Z" style="fill:url(#_Linear2);fill-rule:nonzero;"/>
                    <path d="M173.986,0C167.191,0 160.488,1.212 153.897,3.494C240.525,33.485 307.794,248.72 307.794,338.015C307.794,427.309 240.523,500.879 153.897,510.839C160.49,511.597 167.19,512.001 173.986,512.001C270.075,512.001 345.963,434.105 345.963,338.015C345.963,241.926 270.075,-0 173.986,-0Z" style="fill:url(#_Linear3);fill-rule:nonzero;"/>
                    <g>
                        <path d="M219.31,338.014C219.31,241.925 199.017,0 173.986,0C148.954,0 128.662,241.925 128.662,338.014C128.662,434.104 148.954,512 173.986,512C199.017,512 219.31,434.104 219.31,338.014Z" style="fill:url(#_Linear4);fill-rule:nonzero;"/>
                        <path d="M173.986,0C230.459,0 276.239,241.925 276.239,338.014C276.239,434.104 230.459,512 173.986,512C270.075,512 347.971,434.104 347.971,338.014C347.971,241.925 270.075,-0 173.986,-0Z" style="fill:url(#_Linear5);fill-rule:nonzero;"/>
                        <path d="M71.731,338.014C71.731,241.925 117.512,0 173.986,0C77.896,0 -0,241.925 -0,338.014C-0,434.104 77.896,512 173.986,512C117.512,512 71.731,434.104 71.731,338.014Z" style="fill:url(#_Linear6);fill-rule:nonzero;"/>
                    </g>
                    <path d="M173.986,0C195.208,0 214.919,34.164 231.258,81.914C277.441,161.231 307.793,278.034 307.793,338.014C307.793,397.995 277.441,450.884 231.258,482.165C214.919,500.998 195.208,512 173.986,512C270.075,512 347.971,434.104 347.971,338.014C347.971,241.925 270.075,-0 173.986,-0Z" style="fill:url(#_Linear7);fill-rule:nonzero;"/>
                    <g>
                        <path d="M188.139,25.317C183.686,9.438 178.928,0 173.986,0C171.15,0 168.375,3.115 165.682,8.762C173.356,12.957 180.853,18.55 188.139,25.317Z" style="fill:url(#_Linear8);fill-rule:nonzero;"/>
                        <path d="M165.682,509.077C168.375,510.99 171.149,512 173.986,512C178.929,512 183.686,508.951 188.139,503.336C180.853,505.73 173.357,507.655 165.682,509.077Z" style="fill:url(#_Linear9);fill-rule:nonzero;"/>
                    </g>
                </g>
            </g>
        </g>
    </g>
    <defs>
        <linearGradient id="_Linear2" x1="0" y1="0" x2="1" y2="0" gradientUnits="userSpaceOnUse" gradientTransform="matrix(345.963,0,0,345.963,0,256)"><stop offset="0" style="stop-color:rgb(248,246,247);stop-opacity:1"/><stop offset="0.18" style="stop-color:rgb(248,246,247);stop-opacity:1"/><stop offset="1" style="stop-color:rgb(231,230,245);stop-opacity:1"/></linearGradient>
        <linearGradient id="_Linear3" x1="0" y1="0" x2="1" y2="0" gradientUnits="userSpaceOnUse" gradientTransform="matrix(324.901,0,0,324.901,-16.8819,256)"><stop offset="0" style="stop-color:rgb(248,246,247);stop-opacity:1"/><stop offset="1" style="stop-color:rgb(209,206,235);stop-opacity:1"/></linearGradient>
        <linearGradient id="_Linear4" x1="0" y1="0" x2="1" y2="0" gradientUnits="userSpaceOnUse" gradientTransform="matrix(422.7,0,0,422.7,32.5301,256)"><stop offset="0" style="stop-color:rgb(83,121,131);stop-opacity:1"/><stop offset="0.59" style="stop-color:rgb(85,78,86);stop-opacity:1"/><stop offset="1" style="stop-color:rgb(67,63,67);stop-opacity:1"/></linearGradient>
        <linearGradient id="_Linear5" x1="0" y1="0" x2="1" y2="0" gradientUnits="userSpaceOnUse" gradientTransform="matrix(422.7,0,0,422.7,32.5301,256)"><stop offset="0" style="stop-color:rgb(83,121,131);stop-opacity:1"/><stop offset="0.59" style="stop-color:rgb(85,78,86);stop-opacity:1"/><stop offset="1" style="stop-color:rgb(67,63,67);stop-opacity:1"/></linearGradient>
        <linearGradient id="_Linear6" x1="0" y1="0" x2="1" y2="0" gradientUnits="userSpaceOnUse" gradientTransform="matrix(422.7,0,0,422.7,32.5301,256)"><stop offset="0" style="stop-color:rgb(83,121,131);stop-opacity:1"/><stop offset="0.59" style="stop-color:rgb(85,78,86);stop-opacity:1"/><stop offset="1" style="stop-color:rgb(67,63,67);stop-opacity:1"/></linearGradient>
        <linearGradient id="_Linear7" x1="0" y1="0" x2="1" y2="0" gradientUnits="userSpaceOnUse" gradientTransform="matrix(404.368,0,0,404.368,-98.4747,256)"><stop offset="0" style="stop-color:rgb(83,121,131);stop-opacity:1"/><stop offset="0.59" style="stop-color:rgb(85,78,86);stop-opacity:1"/><stop offset="1" style="stop-color:rgb(67,63,67);stop-opacity:1"/></linearGradient>
        <linearGradient id="_Linear8" x1="0" y1="0" x2="1" y2="0" gradientUnits="userSpaceOnUse" gradientTransform="matrix(233.521,0,0,233.521,-2.10322,12.6584)"><stop offset="0" style="stop-color:rgb(83,121,131);stop-opacity:1"/><stop offset="0.59" style="stop-color:rgb(85,78,86);stop-opacity:1"/><stop offset="1" style="stop-color:rgb(67,63,67);stop-opacity:1"/></linearGradient>
        <linearGradient id="_Linear9" x1="0" y1="0" x2="1" y2="0" gradientUnits="userSpaceOnUse" gradientTransform="matrix(233.521,0,0,233.521,-2.10322,507.668)"><stop offset="0" style="stop-color:rgb(83,121,131);stop-opacity:1"/><stop offset="0.59" style="stop-color:rgb(85,78,86);stop-opacity:1"/><stop offset="1" style="stop-color:rgb(67,63,67);stop-opacity:1"/></linearGradient>
    </defs>
</svg>
