<?xml version="1.0" encoding="UTF-8" standalone="no"?>
<!DOCTYPE svg PUBLIC "-//W3C//DTD SVG 1.1//EN" "http://www.w3.org/Graphics/SVG/1.1/DTD/svg11.dtd">
<svg width="100%" height="100%" viewBox="0 0 1372 810" version="1.1" xmlns="http://www.w3.org/2000/svg" xmlns:xlink="http://www.w3.org/1999/xlink" xml:space="preserve" xmlns:serif="http://www.serif.com/" style="fill-rule:evenodd;clip-rule:evenodd;stroke-linecap:round;stroke-linejoin:round;stroke-miterlimit:1.5;">
    <g transform="matrix(1,0,0,1,-20101.6,-11337.8)">
        <g id="ground-day" transform="matrix(1,0,0,1,19075.8,11337.8)">
            <rect x="1025.79" y="0" width="1371.27" height="809.95" style="fill:none;"/>
            <g>
                <g transform="matrix(1.48939,0.113685,-2.36864,1.21287,-1443.49,-324.174)">
                    <rect x="2382.15" y="237.756" width="554.723" height="208.604" style="fill:rgb(146,218,116);stroke:black;stroke-width:0.42px;"/>
                </g>
                <g transform="matrix(0.999519,0.0762931,0,1.6015,-601.917,-433.124)">
                    <rect x="1649.89" y="511.032" width="826.595" height="66.375" style="fill:rgb(114,66,47);stroke:black;stroke-width:0.42px;"/>
                </g>
                <g transform="matrix(1.09403,-0.560207,-2.23508e-16,1.24202,-1244.9,-25.6175)">
                    <rect x="2850.26" y="1768.56" width="451.638" height="85.586" style="fill:rgb(45,27,20);stroke:black;stroke-width:0.42px;"/>
                </g>
                <g transform="matrix(1,0,0,1,-592.925,-138.071)">
                    <path d="M1674,651.83L1640.11,649.243L1640.11,626.089L2466.3,689.153L2466.3,712.306L2441.6,710.42L2441.6,722.124L2441.69,722.117C2441.69,728.128 2436.72,733.363 2430.6,733.799C2426,734.127 2422.05,731.658 2420.37,727.864L2420.37,738.725L2420.51,738.715C2420.51,747.539 2413.21,755.223 2404.22,755.864C2395.24,756.505 2387.95,749.861 2387.95,741.038L2388.08,741.029L2388.08,724.222C2386.61,727.391 2383.44,729.741 2379.76,730.003C2377.34,730.176 2375.13,729.408 2373.49,728.014L2373.49,729.582L2373.58,729.575C2373.58,735.83 2368.41,741.277 2362.04,741.731C2355.67,742.185 2350.5,737.476 2350.5,731.221L2350.6,731.215L2350.6,703.474L2078.59,682.712L2078.59,716.985L2078.69,716.992C2078.69,723.685 2073.51,728.724 2067.14,728.238C2060.78,727.751 2055.61,721.923 2055.61,715.23L2055.7,715.237L2055.7,713.56C2054.06,715.051 2051.85,715.874 2049.42,715.688C2045.75,715.408 2042.58,712.894 2041.11,709.502L2041.11,727.486L2041.24,727.496C2041.24,736.937 2033.95,744.046 2024.96,743.36C2015.98,742.674 2008.68,734.452 2008.68,725.011L2008.82,725.021L2008.82,713.4C2007.13,717.459 2003.19,720.101 1998.59,719.75C1997.53,719.669 1996.49,719.431 1995.52,719.061L1995.52,724.006L1995.65,724.016C1995.65,733.457 1988.36,740.566 1979.37,739.88C1970.38,739.194 1963.09,730.972 1963.09,721.531L1963.22,721.541L1963.22,709.92C1961.54,713.979 1957.6,716.621 1953,716.27C1946.88,715.803 1941.91,710.202 1941.91,703.77L1942,703.777L1942,672.286L1765,658.776L1765,693.048L1765.09,693.056C1765.09,699.748 1759.92,704.787 1753.55,704.301C1747.18,703.815 1742.01,697.987 1742.01,691.294L1742.11,691.301L1742.11,689.623C1740.46,691.115 1738.26,691.937 1735.83,691.752C1732.16,691.472 1728.99,688.957 1727.52,685.566L1727.52,703.55L1727.65,703.56C1727.65,713.001 1720.36,720.109 1711.37,719.424C1702.38,718.738 1695.09,710.516 1695.09,701.074L1695.22,701.085L1695.22,689.463C1693.54,693.523 1689.6,696.165 1685,695.814C1678.88,695.347 1673.91,689.746 1673.91,683.314L1674,683.321L1674,651.83Z" style="fill:rgb(116,192,85);"/>
                </g>
                <g transform="matrix(1,0,0,1,-592.925,-138.071)">
                    <path d="M2499.42,695.349L2466.3,712.306L2466.3,689.153L2960.41,436.142L2960.41,459.296L2916.33,481.869L2916.33,497.906L2916.33,497.908C2916.24,504.991 2913.97,511.941 2911.2,513.551C2910.38,514.027 2909.61,513.985 2908.92,513.509L2908.92,523.156L2908.92,523.158C2908.77,534.544 2905.14,545.716 2900.68,548.305C2896.22,550.894 2892.59,543.945 2892.45,532.728L2892.44,532.73L2892.44,532.365C2891.04,535.535 2889.29,537.897 2887.38,538.874C2885.96,539.599 2884.63,539.475 2883.47,538.651C2882.57,550.163 2878.28,560.759 2873.11,563.402C2870.22,564.881 2867.61,563.595 2865.7,560.319C2864.43,563.12 2862.92,565.191 2861.3,566.131C2856.85,568.719 2853.21,561.771 2853.07,550.554L2853.07,550.556L2853.07,550.191C2851.67,553.361 2849.91,555.723 2848,556.7C2846.59,557.425 2845.25,557.301 2844.09,556.477C2843.2,567.989 2838.9,578.585 2833.74,581.228C2828.05,584.142 2823.41,576.321 2823.22,563.697L2823.22,563.7L2823.22,529.548L2760.89,561.462L2760.89,571.245L2760.89,571.246C2760.8,578.329 2758.53,585.279 2755.76,586.89C2754.94,587.366 2754.17,587.324 2753.48,586.848L2753.48,596.494L2753.48,596.497C2753.33,607.882 2749.7,619.054 2745.24,621.643C2740.78,624.232 2737.15,617.283 2737.01,606.066L2737,606.069L2737,605.704C2735.6,608.873 2733.85,611.236 2731.94,612.212C2730.52,612.938 2729.19,612.814 2728.03,611.989C2727.74,615.657 2727.11,619.232 2726.22,622.486C2725.15,631.58 2722.04,639.526 2718.37,641.657C2715.27,643.457 2712.57,640.644 2711.16,634.99C2710.03,633.551 2709.08,631.499 2708.39,628.956C2707.38,630.485 2706.25,631.622 2705.07,632.226C2703.66,632.952 2702.32,632.827 2701.16,632.003C2700.27,643.516 2695.97,654.111 2690.8,656.755C2685.11,659.668 2680.47,651.848 2680.29,639.224L2680.28,639.227L2680.28,602.738L2553.16,667.833L2553.16,681.533L2553.16,681.535C2553.06,688.618 2550.8,695.568 2548.03,697.179C2547.21,697.655 2546.44,697.612 2545.75,697.137L2545.75,706.783L2545.75,706.786C2545.6,718.171 2541.97,729.343 2537.51,731.932C2533.05,734.521 2529.42,727.572 2529.27,716.355L2529.27,716.358L2529.27,715.993C2527.87,719.162 2526.12,721.525 2524.21,722.501C2522.79,723.227 2521.46,723.102 2520.29,722.278C2519.4,733.791 2515.1,744.386 2509.94,747.03C2504.25,749.943 2499.61,742.123 2499.43,729.499L2499.42,729.502L2499.42,695.349Z" style="fill:rgb(80,134,63);"/>
                </g>
            </g>
        </g>
    </g>
</svg>
